<svg xmlns="http://www.w3.org/2000/svg" xmlns:xlink="http://www.w3.org/1999/xlink" width="240.779" height="48.752" viewBox="0 0 240.779 48.752">
  <defs>
    <clipPath id="clip-path">
      <path id="Path_4185" data-name="Path 4185" d="M2103.893,1070.272a14.375,14.375,0,0,0,3.355-7.055,22.127,22.127,0,0,0,.244-6.216,22.375,22.375,0,0,0-1.464-6.068,21.675,21.675,0,0,0-6.02-8.482,19.692,19.692,0,0,0-4.551-2.907,19.467,19.467,0,0,0-2.052-.8,24.037,24.037,0,0,1,11.589,3.946c9.416,6.278,11.849,20.529,5.147,29.971a18.946,18.946,0,0,1-12.414,4.523,19.4,19.4,0,0,1-8.895-2.15,16.55,16.55,0,0,1-9.093-17.229c0-.012,0-.023.005-.035.005-.04.012-.079.019-.119l0-.01c.025-.138.048-.269.074-.391l0-.013c.032-.163.063-.306.095-.439a11.345,11.345,0,0,1,2.946-5.5,6.5,6.5,0,0,1,4.506-1.993,5.642,5.642,0,0,1,.774.053,16.372,16.372,0,0,0-2.44,4.012,15.567,15.567,0,0,0-1.252,6.648,17.107,17.107,0,0,0,1.643,6.691,12.811,12.811,0,0,0,4.589,5.376,10.13,10.13,0,0,0,5.19,1.555c.087,0,.176,0,.262,0a10.241,10.241,0,0,0,7.738-3.37m-30.341-27.824a1.346,1.346,0,0,0-.078,1.99,1.622,1.622,0,0,0,2.148.1,17.883,17.883,0,0,1,11.322-3.972,18.558,18.558,0,0,1,2.2.131l.223.028.14.019.04.006a17.4,17.4,0,0,1,13.605,11.16,20.126,20.126,0,0,1,1.074,10.822c-.722,3.9-3.221,8.066-8.069,8.066l-.19,0a6.9,6.9,0,0,1-3.534-1.063c-3.227-2.037-4.783-6.393-4.894-9.807a13.437,13.437,0,0,1,4.349-10.216,1.356,1.356,0,0,0,.428-1.2,1.426,1.426,0,0,0-.78-1.041,9.025,9.025,0,0,0-7.819-.224,10.392,10.392,0,0,0-3.059,2.1,13.943,13.943,0,0,0-3.716,6.847c-.038.16-.075.331-.113.523-.033.158-.061.314-.088.465a.123.123,0,0,0,0,.013l0,.016c-.009.054-.02.114-.029.181a18.291,18.291,0,0,0,1.9,11.565,20.317,20.317,0,0,0,8.724,8.554,22.821,22.821,0,0,0,18.194,1.144,21.427,21.427,0,0,0,6.846-4.04,1.525,1.525,0,0,0,.175-.182c.028-.034.055-.07.08-.106a23.274,23.274,0,0,0,3.825-8.657,25.211,25.211,0,0,0,.265-9.4,24.338,24.338,0,0,0-3.223-8.863,22.251,22.251,0,0,0-6.709-7.023,27.785,27.785,0,0,0-33.236,2.065" transform="translate(-2073.072 -1035.831)" fill="#2999ec"/>
    </clipPath>
    <clipPath id="clip-path-2">
      <path id="Path_7504" data-name="Path 7504" d="M1894.64,1106.576a20.573,20.573,0,0,1,7.208-15.573,17.842,17.842,0,0,1,11.3-3.972,18.452,18.452,0,0,1,2.2.132l.224.028.143.02.036.005a17.417,17.417,0,0,1,13.606,11.205,20.287,20.287,0,0,1,1.074,10.866c-.723,3.915-3.222,8.1-8.069,8.1l-.19,0a6.881,6.881,0,0,1-1.672-.244,13.721,13.721,0,0,0,3.078-5.079c.011-.032.021-.064.03-.1a19.211,19.211,0,0,0-.012-10.81q-.01-.032-.021-.064a14.038,14.038,0,0,0-2.315-4.222,10.906,10.906,0,0,0-3.52-2.907,8.991,8.991,0,0,0-7.819-.225,10.383,10.383,0,0,0-3.058,2.105,14.022,14.022,0,0,0-3.716,6.874c-.038.161-.075.333-.113.524-.033.159-.061.315-.088.467l0,.013,0,.015c-.009.054-.019.115-.029.182a18.425,18.425,0,0,0,1.9,11.611,20.355,20.355,0,0,0,8.724,8.589,22.6,22.6,0,0,0,10.394,2.523q1.126,0,2.236-.108a24.561,24.561,0,0,1-8.446,1.5c-12.73,0-23.087-9.624-23.087-21.453m5.157-17.692-.037.032a24.307,24.307,0,0,0-5.984,7.882,22.795,22.795,0,0,0-.147,19.238,24.2,24.2,0,0,0,5.6,7.725,26.261,26.261,0,0,0,8.313,5.208,27.708,27.708,0,0,0,10.18,1.911,28.166,28.166,0,0,0,6.252-.7,27.286,27.286,0,0,0,5.711-1.987,25.981,25.981,0,0,0,9.068-7.169,1.355,1.355,0,0,0-.216-1.916,1.621,1.621,0,0,0-2.072.034,18.892,18.892,0,0,1-12.534,4.646,19.335,19.335,0,0,1-8.895-2.159,16.633,16.633,0,0,1-9.092-17.3l.005-.035c.006-.041.012-.08.019-.12l0-.01c.025-.139.048-.27.074-.392l0-.013c.032-.163.063-.307.095-.441a11.4,11.4,0,0,1,2.946-5.521,6.491,6.491,0,0,1,4.505-2,5.836,5.836,0,0,1,2.669.66,9.622,9.622,0,0,1,4.381,5.477,16.555,16.555,0,0,1,0,9.285,9.981,9.981,0,0,1-3.722,5.086,1.474,1.474,0,0,0-.445.422,1.364,1.364,0,0,0,.43,1.942,10.1,10.1,0,0,0,5.19,1.562c.087,0,.175,0,.262,0a10.222,10.222,0,0,0,7.737-3.383,14.454,14.454,0,0,0,3.355-7.083,22.3,22.3,0,0,0,.244-6.241,22.538,22.538,0,0,0-1.464-6.093,21.761,21.761,0,0,0-6.02-8.516,19.555,19.555,0,0,0-10.015-4.523l-.021,0-.174-.024-.265-.034a21.752,21.752,0,0,0-2.59-.155,21.042,21.042,0,0,0-13.354,4.7" transform="translate(-1891.573 -1084.18)" fill="#f24473"/>
    </clipPath>
  </defs>
  <g id="Group_1038" data-name="Group 1038" transform="translate(19093.109 19666.563)">
    <g id="Group_1031" data-name="Group 1031" transform="translate(-19379.109 -19738)">
      <path id="Path_7507" data-name="Path 7507" d="M7.16,20.24a6,6,0,0,0,4.18-1.56V12.9H6.78v1.94H9.2v2.78a2.8,2.8,0,0,1-1.8.56c-2.62,0-3.98-1.8-3.98-4.74,0-2.92,1.54-4.68,3.84-4.68A3.469,3.469,0,0,1,9.88,9.8l1.26-1.46A5.31,5.31,0,0,0,7.18,6.68C3.7,6.68.98,9.22.98,13.5.98,17.84,3.62,20.24,7.16,20.24Zm9.14,0a2.8,2.8,0,0,0,1.24-.22l-.28-1.74a1.234,1.234,0,0,1-.36.04c-.24,0-.5-.2-.5-.78V5.88H14.02V17.42C14.02,19.16,14.64,20.24,16.3,20.24Zm7.22,0c2.44,0,4.68-1.88,4.68-5.14,0-3.28-2.24-5.18-4.68-5.18-2.46,0-4.7,1.9-4.7,5.18C18.82,18.36,21.06,20.24,23.52,20.24Zm0-1.92c-1.42,0-2.26-1.28-2.26-3.22,0-1.96.84-3.24,2.26-3.24s2.26,1.28,2.26,3.24C25.78,17.04,24.94,18.32,23.52,18.32Zm11.74,1.92c2.18,0,4.18-1.94,4.18-5.32,0-3.02-1.42-5-3.88-5a4.431,4.431,0,0,0-2.82,1.22l.08-1.62V5.88H30.44V20H32.3l.22-1.04h.06A3.924,3.924,0,0,0,35.26,20.24Zm-.52-1.96a2.925,2.925,0,0,1-1.92-.78V12.96a2.952,2.952,0,0,1,2.1-1.08c1.46,0,2.1,1.14,2.1,3.08C37.02,17.16,36.02,18.28,34.74,18.28Zm9.14,1.96a4.58,4.58,0,0,0,3-1.32h.08l.2,1.08h1.92V14.18c0-2.74-1.24-4.26-3.68-4.26a7.682,7.682,0,0,0-4.04,1.28l.84,1.56a5.535,5.535,0,0,1,2.76-.92c1.32,0,1.72.84,1.76,1.84-4.04.44-5.76,1.52-5.76,3.68A2.761,2.761,0,0,0,43.88,20.24Zm.72-1.88c-.8,0-1.36-.32-1.36-1.16,0-1,.8-1.6,3.48-1.92v2.08A2.931,2.931,0,0,1,44.6,18.36Zm9.48,1.88a2.8,2.8,0,0,0,1.24-.22l-.28-1.74a1.234,1.234,0,0,1-.36.04c-.24,0-.5-.2-.5-.78V5.88H51.8V17.42C51.8,19.16,52.42,20.24,54.08,20.24ZM61.46,20h2.38V15.22h1.84c2.82,0,5-1.32,5-4.24,0-3.04-2.18-4.06-5.08-4.06H61.46Zm2.38-6.68V8.82h1.58c1.9,0,2.9.56,2.9,2.16,0,1.58-.9,2.34-2.82,2.34ZM72.9,20h2.38V14.04c.58-1.5,1.52-2.02,2.3-2.02a3.254,3.254,0,0,1,.94.12L79,10.12a2.806,2.806,0,0,0-1.12-.2,3.414,3.414,0,0,0-2.8,2h-.06l-.18-1.76H72.9Zm11.38.24c2.44,0,4.68-1.88,4.68-5.14,0-3.28-2.24-5.18-4.68-5.18-2.46,0-4.7,1.9-4.7,5.18C79.58,18.36,81.82,20.24,84.28,20.24Zm0-1.92c-1.42,0-2.26-1.28-2.26-3.22,0-1.96.84-3.24,2.26-3.24s2.26,1.28,2.26,3.24C86.54,17.04,85.7,18.32,84.28,18.32ZM95.42,20h4.54c2.88,0,5.04-1.22,5.04-3.84a2.987,2.987,0,0,0-2.5-3.1v-.08a2.96,2.96,0,0,0,1.8-2.84c0-2.4-1.98-3.22-4.68-3.22h-4.2Zm2.38-7.7V8.78h1.66c1.68,0,2.52.46,2.52,1.7,0,1.12-.78,1.82-2.56,1.82Zm0,5.84V14.08h1.92c1.92,0,2.94.6,2.94,1.94,0,1.46-1.04,2.12-2.94,2.12Zm13.42,2.1c2.44,0,4.68-1.88,4.68-5.14,0-3.28-2.24-5.18-4.68-5.18-2.46,0-4.7,1.9-4.7,5.18C106.52,18.36,108.76,20.24,111.22,20.24Zm0-1.92c-1.42,0-2.26-1.28-2.26-3.22,0-1.96.84-3.24,2.26-3.24s2.26,1.28,2.26,3.24C113.48,17.04,112.64,18.32,111.22,18.32ZM118.14,20h2.38V13.16a2.943,2.943,0,0,1,2.2-1.2c1.04,0,1.5.58,1.5,2.18V20h2.36V13.84c0-2.48-.92-3.92-3.04-3.92a4.64,4.64,0,0,0-3.22,1.56h-.06l-.18-1.32h-1.94Zm15.28.24c2.44,0,4.68-1.88,4.68-5.14,0-3.28-2.24-5.18-4.68-5.18-2.46,0-4.7,1.9-4.7,5.18C128.72,18.36,130.96,20.24,133.42,20.24Zm0-1.92c-1.42,0-2.26-1.28-2.26-3.22,0-1.96.84-3.24,2.26-3.24s2.26,1.28,2.26,3.24C135.68,17.04,134.84,18.32,133.42,18.32ZM144.56,20h2.38V14.24h5.2V20h2.38V6.92h-2.38v5.24h-5.2V6.92h-2.38Zm15.98.24a3.973,3.973,0,0,0,3.16-1.68h.06l.18,1.44h1.94V10.16h-2.36v6.72c-.72.94-1.28,1.34-2.14,1.34-1.04,0-1.5-.6-1.5-2.2V10.16h-2.36v6.16C157.52,18.8,158.44,20.24,160.54,20.24Zm13.06,0c2.18,0,4.18-1.94,4.18-5.32,0-3.02-1.42-5-3.88-5a4.431,4.431,0,0,0-2.82,1.22l.08-1.62V5.88h-2.38V20h1.86l.22-1.04h.06A3.924,3.924,0,0,0,173.6,20.24Zm-.52-1.96a2.925,2.925,0,0,1-1.92-.78V12.96a2.952,2.952,0,0,1,2.1-1.08c1.46,0,2.1,1.14,2.1,3.08C175.36,17.16,174.36,18.28,173.08,18.28Z" transform="translate(349 80.411)" fill="#fff"/>
    </g>
    <g id="Group_1037" data-name="Group 1037">
      <g id="Group_1032" data-name="Group 1032" transform="translate(-19085.402 -19666.563)">
        <g id="Group_764" data-name="Group 764" transform="translate(0 0)" clip-path="url(#clip-path)">
          <rect id="Rectangle_725" data-name="Rectangle 725" width="44.312" height="44.189" transform="translate(-0.163)" fill="#2999ec"/>
        </g>
      </g>
      <g id="Group_1033" data-name="Group 1033" transform="translate(-19093.109 -19664.51)" clip-path="url(#clip-path-2)" style="isolation: isolate">
        <rect id="Rectangle_934" data-name="Rectangle 934" width="47.659" height="46.699" transform="translate(0 0)" fill="#ea1f56"/>
      </g>
      <path id="Intersection_18" data-name="Intersection 18" d="M21.969,41.676a20.312,20.312,0,0,1-8.724-8.555,18.4,18.4,0,0,1-2.148-8.47,18.478,18.478,0,0,1,.243-2.863c.01-.067.02-.128.029-.182l0-.015a.069.069,0,0,1,0-.014c.027-.152.055-.308.088-.467.038-.192.076-.364.113-.525a14.02,14.02,0,0,1,3.715-6.874,10.373,10.373,0,0,1,3.059-2.105,8.987,8.987,0,0,1,7.819.225q.291.148.573.316a1.338,1.338,0,0,1-.222,1.735q-.5.47-.953.98a6.922,6.922,0,0,0-.874-.532,5.953,5.953,0,0,0-2.043-.625l.147-.181a5.706,5.706,0,0,0-.774-.053,6.5,6.5,0,0,0-4.505,1.993,11.349,11.349,0,0,0-2.947,5.5c-.031.134-.062.277-.095.439l0,.013c-.025.122-.049.253-.074.391l0,.011c-.007.04-.014.078-.019.119l-.005.035a15.4,15.4,0,0,0-.206,2.636,16.827,16.827,0,0,0,9.3,14.9,19.33,19.33,0,0,0,8.895,2.159A18.891,18.891,0,0,0,44.9,37.014a1.621,1.621,0,0,1,2.072-.033,1.374,1.374,0,0,1,.511,1.206q-.107.153-.215.305c-.025.036-.052.071-.08.106a1.456,1.456,0,0,1-.175.182,21.413,21.413,0,0,1-6.846,4.04,22.827,22.827,0,0,1-18.194-1.144Zm8.559-3.869a10.117,10.117,0,0,1-5.189-1.555q-.291-.184-.573-.389a1.337,1.337,0,0,1,.143-1.262,1.471,1.471,0,0,1,.445-.422,7.748,7.748,0,0,0,1-.783,7.9,7.9,0,0,0,.716.51,6.9,6.9,0,0,0,2.08.876q-.108.116-.218.229a6.867,6.867,0,0,0,1.672.243l.19,0c4.847,0,7.347-4.183,8.069-8.1a19.2,19.2,0,0,0,.308-3.611,20.163,20.163,0,0,0-1.384-7.465A17.4,17.4,0,0,0,24.179,4.923l-.04-.005L24,4.9l-.224-.028a18.525,18.525,0,0,0-2.2-.131A17.884,17.884,0,0,0,10.256,8.711a1.622,1.622,0,0,1-2.147-.105,1.34,1.34,0,0,1-.293-1.484q.184-.168.372-.333l.037-.032a21.042,21.042,0,0,1,13.354-4.7,21.691,21.691,0,0,1,2.591.156c.087.01.176.022.265.033l.174.023.021,0A19.56,19.56,0,0,1,34.645,6.791a21.776,21.776,0,0,1,6.019,8.516A22.522,22.522,0,0,1,42.127,21.4q.106,1.066.113,2.122a21.606,21.606,0,0,1-.358,3.863,14.372,14.372,0,0,1-3.354,7.055,10.24,10.24,0,0,1-7.737,3.371C30.7,37.811,30.615,37.81,30.528,37.807Z" transform="translate(-19093.109 -19666.561)" fill="#9668ba" stroke="rgba(0,0,0,0)" stroke-miterlimit="10" stroke-width="1"/>
    </g>
  </g>
</svg>
