<svg xmlns="http://www.w3.org/2000/svg" width="76" height="79" viewBox="0 0 76 79"><g><g><g><path fill="#2999ec" d="M19.305 60.531V.547h15.933V60.53z"/></g><g><path fill="#2999ec" d="M.56 60.531V23.98h15.934V60.53z"/></g><g><path fill="#2999ec" d="M38.05 60.532V17.418h15.934v43.114z"/></g><g opacity=".78"><path fill="#ea1f56" d="M55.765 44.477a11.06 11.06 0 0 1 3.529 2.38 11.063 11.063 0 0 1 3.252 7.85 11.053 11.053 0 0 1-3.252 7.852 11.062 11.062 0 0 1-7.852 3.253 11.07 11.07 0 0 1-7.852-3.252 11.05 11.05 0 0 1-2.38-3.53 11.05 11.05 0 0 1-.873-4.322 11.06 11.06 0 0 1 3.252-7.85 11.079 11.079 0 0 1 7.853-3.253c1.5 0 2.953.293 4.323.872zm-.493 31.715c0-.528.166-1.03.478-1.454A2.384 2.384 0 0 1 57 73.86a19.95 19.95 0 0 0 3.925-1.626 2.425 2.425 0 0 1 2.876.423l.001.002c.46.46 1.073.714 1.726.714.65 0 1.262-.254 1.724-.714l2.14-2.141c.952-.952.95-2.5 0-3.452a2.424 2.424 0 0 1-.423-2.876 20.017 20.017 0 0 0 1.626-3.924c.149-.504.452-.936.878-1.25a2.424 2.424 0 0 1 1.452-.479 2.442 2.442 0 0 0 2.44-2.439v-3.028a2.442 2.442 0 0 0-2.44-2.439c-.527 0-1.03-.165-1.452-.478a2.383 2.383 0 0 1-.878-1.25 19.97 19.97 0 0 0-1.626-3.924 2.42 2.42 0 0 1 .423-2.875v-.003a2.42 2.42 0 0 0 .716-1.724 2.42 2.42 0 0 0-.716-1.725l-2.14-2.141a2.424 2.424 0 0 0-1.724-.714c-.653 0-1.266.253-1.726.714l-.001.001a2.424 2.424 0 0 1-2.876.423A19.954 19.954 0 0 0 57 35.31a2.384 2.384 0 0 1-1.25-.877 2.433 2.433 0 0 1-.48-1.455 2.442 2.442 0 0 0-2.44-2.439h-3.025a2.441 2.441 0 0 0-2.439 2.44 2.428 2.428 0 0 1-1.73 2.33 19.931 19.931 0 0 0-3.923 1.627 2.426 2.426 0 0 1-2.878-.424 2.425 2.425 0 0 0-1.726-.714c-.651 0-1.264.253-1.724.714l-2.14 2.141a2.42 2.42 0 0 0-.714 1.725c0 .652.253 1.264.714 1.725a2.43 2.43 0 0 1 .423 2.877 20.025 20.025 0 0 0-1.626 3.925 2.429 2.429 0 0 1-2.33 1.728 2.442 2.442 0 0 0-2.44 2.438V56.1a2.442 2.442 0 0 0 2.44 2.44 2.427 2.427 0 0 1 2.33 1.728 20.07 20.07 0 0 0 1.626 3.924c.254.462.345.983.268 1.507a2.434 2.434 0 0 1-.691 1.37 2.441 2.441 0 0 0 0 3.45l2.14 2.142c.461.46 1.073.714 1.724.714.653 0 1.266-.254 1.727-.714v-.003a2.426 2.426 0 0 1 2.877-.422 19.943 19.943 0 0 0 3.923 1.626 2.428 2.428 0 0 1 1.73 2.331 2.442 2.442 0 0 0 2.439 2.44h3.026a2.442 2.442 0 0 0 2.44-2.44z"/></g><g><path fill="#2999ec" d="M.56 60.532V23.979h15.935v36.553zm18.746 0V.546h15.932v59.986zm18.745 0V17.417h15.932v43.115z"/></g><g opacity=".78"><path fill="#2b2791" d="M35.238 60.532V36.659l-1.993 1.994a2.417 2.417 0 0 0-.714 1.725c0 .652.252 1.265.714 1.725.374.376.613.849.69 1.37a2.379 2.379 0 0 1-.267 1.507 19.947 19.947 0 0 0-1.625 3.925 2.392 2.392 0 0 1-.877 1.25 2.441 2.441 0 0 1-1.454.477 2.442 2.442 0 0 0-2.44 2.44V56.1a2.442 2.442 0 0 0 2.44 2.44c.528 0 1.03.163 1.454.476.424.315.728.747.877 1.252.025.088.052.176.08.264zm6.746 0a11.067 11.067 0 0 1-1.648-5.824 11.076 11.076 0 0 1 3.254-7.852 11.075 11.075 0 0 1 7.852-3.252c.864 0 1.714.098 2.541.292V30.828a2.43 2.43 0 0 0-1.152-.289h-3.026a2.441 2.441 0 0 0-2.439 2.44 2.424 2.424 0 0 1-1.729 2.33c-1.355.4-2.675.946-3.923 1.627a2.428 2.428 0 0 1-2.879-.424 2.436 2.436 0 0 0-.784-.528v24.548z"/></g></g></g></svg>