<svg xmlns="http://www.w3.org/2000/svg" width="70.363" height="81.763" viewBox="0 0 70.363 81.763">
  <g id="Group_1189" data-name="Group 1189" transform="translate(-1496.807 -1055.236)">
    <path id="Path_7554" data-name="Path 7554" d="M534.351,490.89a6.614,6.614,0,0,0-6.592,7.154l.848,6.146a2.117,2.117,0,0,0,1.856,1.913l.506,10.125a1.319,1.319,0,0,0,1.318,1.262h4.128a1.319,1.319,0,0,0,1.318-1.262l.506-10.125a2.117,2.117,0,0,0,1.855-1.913l.848-6.146a6.614,6.614,0,0,0-6.592-7.154" transform="translate(994.422 587.838)" fill="#d63654"/>
    <path id="Path_7553" data-name="Path 7553" d="M582.094,251.351a4.715,4.715,0,1,1-4.715-4.715,4.715,4.715,0,0,1,4.715,4.715" transform="translate(951.391 821.764)" fill="#d63654"/>
    <path id="Path_7558" data-name="Path 7558" d="M203.141,497.211l-.841,6.224a1.99,1.99,0,0,1-1.85,1.85l-.5,9.755a17.541,17.541,0,0,1-2.354-2.018,21.34,21.34,0,0,1-4.962-7.737,20.962,20.962,0,0,1,0-13.792v-.084a6.411,6.411,0,0,1,3.953-1.345,6.607,6.607,0,0,1,6.559,7.148" transform="translate(1316.477 588.629)" fill="#2999ec"/>
    <path id="Path_7557" data-name="Path 7557" d="M258.216,288.287A4.7,4.7,0,0,1,253.507,293a4.587,4.587,0,0,1-2.607-.841,21.368,21.368,0,0,1,3.532-4.794,21.154,21.154,0,0,1,2.607-2.187,4.617,4.617,0,0,1,1.177,3.112" transform="translate(1259.551 784.854)" fill="#2999ec"/>
    <path id="Path_7556" data-name="Path 7556" d="M952.346,292.154v.084a4.262,4.262,0,0,1-2.523.757,4.7,4.7,0,0,1-4.709-4.709,4.617,4.617,0,0,1,1.177-3.112,15.733,15.733,0,0,1,2.523,2.187,21.363,21.363,0,0,1,3.532,4.794" transform="translate(594.689 784.855)" fill="#2999ec"/>
    <path id="Path_7555" data-name="Path 7555" d="M911.2,505.286a21.347,21.347,0,0,1-4.962,7.737,17.141,17.141,0,0,1-2.271,1.935l-.5-9.672a1.989,1.989,0,0,1-1.85-1.85l-.841-6.224a6.607,6.607,0,0,1,6.56-7.148,6.351,6.351,0,0,1,3.869,1.345,21.212,21.212,0,0,1,0,13.876" transform="translate(637.182 588.627)" fill="#2999ec"/>
    <g id="Ellipse_127" data-name="Ellipse 127" transform="translate(1496.807 1055.236)" fill="none" stroke="#2b2791" stroke-width="6">
      <ellipse cx="31.395" cy="31.395" rx="31.395" ry="31.395" stroke="none"/>
      <ellipse cx="31.395" cy="31.395" rx="28.395" ry="28.395" fill="none"/>
    </g>
    <rect id="Rectangle_1023" data-name="Rectangle 1023" width="9.754" height="32.422" rx="4.877" transform="translate(1537.924 1113.287) rotate(-43)" fill="#2b2791"/>
  </g>
</svg>
