<?xml version="1.0" encoding="UTF-8"?>
<svg id="SVGDoc" xmlns="http://www.w3.org/2000/svg" version="1.1" xmlns:xlink="http://www.w3.org/1999/xlink" xmlns:avocode="https://avocode.com/" viewBox="0 0 269 254"><defs></defs><desc>Generated with Avocode.</desc><g><g opacity="0.1"><path d="M116.48415,125.67414c-0.52343,-16.10548 5.36319,-31.94101 16.31312,-44.33832c7.2633,5.1753 13.2678,13.57446 16.8446,23.73745c4.25331,14.57915 4.25331,29.98335 0,44.56682c-2.95177,8.36423 -7.49974,15.50113 -13.08805,20.65448c-13.17283,-10.51927 -19.57891,-29.4967 -20.06966,-44.62043zM122.70851,198.14649c-27.47212,-14.24191 -44.32135,-41.22223 -44.65602,-69.7664c0.01577,-3.9187 0.34076,-7.86466 0.99039,-11.80766c0.00864,-0.05617 0.01729,-0.11233 0.02593,-0.16847c0.03026,-0.19438 0.06051,-0.38446 0.09509,-0.57452l0.00433,-0.04754c0.12102,-0.66521 0.2334,-1.29591 0.35877,-1.8834c0,-0.02159 0.00432,-0.03887 0.00863,-0.06048c0.15561,-0.78186 0.3069,-1.4687 0.45818,-2.11666c2.46382,-10.55314 7.48653,-19.96587 14.15178,-26.49733c4.46513,-4.38453 11.84359,-9.6071 21.63832,-9.6071c1.00532,0 2.00661,0.05625 3.0032,0.1681c-4.51424,5.63219 -8.20126,11.78425 -11.01274,18.38953c-4.34841,10.20324 -6.37133,20.94213 -6.01689,31.90996c0.35444,10.83392 3.15541,22.23805 7.89283,32.11299c4.80542,10.01561 11.43469,18.22983 19.29391,23.94025c0.51376,1.28119 1.44464,2.43077 2.75072,3.25687c7.43898,4.71283 16.058,7.30468 24.92772,7.49908c0.41928,0.00864 0.8429,0.01294 1.25783,0.01294c14.58834,0 27.43908,-5.61565 37.16029,-16.23793c7.94474,-8.68268 13.66771,-20.75636 16.1142,-34.0007c1.21121,-6.56793 1.78343,-13.31888 1.71045,-20.165c-0.00026,-3.60703 -0.18131,-7.24301 -0.54337,-10.89397c-1.00713,-10.15139 -3.37585,-19.94857 -7.02832,-29.12371c-6.35837,-15.95282 -16.35627,-30.03086 -28.91306,-40.7136c-6.6566,-5.66319 -14.00914,-10.35443 -21.85443,-13.95278c-3.20294,-1.46871 -6.49235,-2.756 -9.85522,-3.85753c20.10382,1.49463 39.19187,7.96993 55.65616,18.94208c45.22176,30.13022 56.90973,98.53337 24.72025,143.85184c-16.23522,14.00891 -37.37212,21.71104 -59.61989,21.71104c-14.91685,0 -29.68676,-3.56812 -42.71903,-10.31989zM59.34969,52.60134c15.00764,-12.294 34.28587,-19.06736 54.28596,-19.06736c3.51417,0 7.06292,0.21167 10.55981,0.635c0.36309,0.0432 0.72619,0.09071 1.07198,0.13391c0.22909,0.03024 0.4625,0.06479 0.68725,0.09503c0.04325,0.00432 0.10377,0.01296 0.17293,0.02592c29.22424,4.21176 53.65055,24.31153 65.34716,53.78083c4.24988,10.70671 6.50923,22.66359 6.63887,34.45364c-0.0048,5.59318 -0.49509,11.13774 -1.48647,16.48048c-3.46665,18.71745 -15.47016,38.71356 -38.75101,38.71356c-0.30257,0 -0.60945,0 -0.91635,-0.00865c-2.36197,-0.05084 -4.69994,-0.35371 -6.97617,-0.89639c5.87268,-6.3336 10.60103,-14.2928 13.73651,-23.28122c0.05187,-0.1512 0.09941,-0.30668 0.14264,-0.46652c4.95355,-16.97663 4.93194,-34.91652 -0.0562,-51.88447c-0.03024,-0.10368 -0.06052,-0.20734 -0.09941,-0.30671c-2.65399,-7.61138 -6.39294,-14.42794 -11.11308,-20.26392c-4.16491,-5.14664 -8.91587,-9.32098 -14.16064,-12.43988c-0.66106,-1.0075 -1.60187,-1.85319 -2.74887,-2.43733c-6.32379,-3.20525 -13.0193,-4.82948 -19.90932,-4.82948c-6.06012,0 -11.99919,1.26137 -17.64867,3.75386c-5.31231,2.34994 -10.25292,5.73662 -14.68777,10.065c-8.60605,8.41055 -14.78287,19.78012 -17.84318,32.86462c-0.18154,0.76891 -0.36308,1.58967 -0.54462,2.50977c-0.15994,0.76028 -0.29393,1.50759 -0.42361,2.229c-0.00431,0.02159 -0.00864,0.04319 -0.00864,0.0648l-0.01729,0.07775c-0.04322,0.25487 -0.09077,0.54428 -0.13832,0.86395c-0.83279,5.0638 -1.2192,10.14016 -1.16569,15.1918c-0.04149,14.36499 3.44472,28.54586 10.31636,41.65173c9.155,17.46903 23.63961,31.72422 41.89774,41.22333c15.23242,7.92244 32.49205,12.10825 49.92026,12.10825c3.60495,0 7.18829,-0.1728 10.74136,-0.51837c-12.79021,4.68692 -26.54433,7.1924 -40.56211,7.1924c-61.1414,0 -110.88011,-46.19107 -110.88011,-102.9698c0,-28.55782 12.29312,-55.09835 34.6187,-74.74454zM86.71524,234.82546c15.49175,6.08652 31.94309,9.17081 48.89583,9.17081c10.1535,0 20.25512,-1.12742 30.02824,-3.35641c9.4965,-2.16422 18.72497,-5.37379 27.43044,-9.53801c17.04784,-8.16001 32.10733,-20.0566 43.55324,-34.41109c0.82279,-1.03176 1.28813,-2.21312 1.41173,-3.4117c8.28093,-11.92203 14.10543,-25.39522 17.33054,-40.0795c3.25049,-14.8081 3.67841,-29.97903 1.27512,-45.10246c-2.44218,-15.34374 -7.65077,-29.65938 -15.47882,-42.54086c-8.29907,-13.65039 -19.13986,-24.99404 -32.22401,-33.71129c-21.44812,-14.28972 -46.80372,-21.84495 -73.33076,-21.84495c-32.22837,0 -62.87472,11.27886 -86.29389,31.75877c-0.80504,0.70338 -1.40027,1.53568 -1.78412,2.42975c-11.43963,10.43724 -20.49862,22.61539 -26.94736,36.22765c-7.0197,14.81672 -10.58142,30.60972 -10.58142,46.9297c0,15.74548 3.32398,31.0201 9.87685,45.40918c6.32378,13.88799 15.38369,26.36339 26.91605,37.07639c11.53237,10.70864 24.96663,19.11917 39.92238,24.99403z" fill="#ffffff" fill-opacity="1"></path><path d="M116.48415,125.67414c-0.52343,-16.10548 5.36319,-31.94101 16.31312,-44.33832c7.2633,5.1753 13.2678,13.57446 16.8446,23.73745c4.25331,14.57915 4.25331,29.98335 0,44.56682c-2.95177,8.36423 -7.49974,15.50113 -13.08805,20.65448c-13.17283,-10.51927 -19.57891,-29.4967 -20.06966,-44.62043zM122.70851,198.14649c-27.47212,-14.24191 -44.32135,-41.22223 -44.65602,-69.7664c0.01577,-3.9187 0.34076,-7.86466 0.99039,-11.80766c0.00864,-0.05617 0.01729,-0.11233 0.02593,-0.16847c0.03026,-0.19438 0.06051,-0.38446 0.09509,-0.57452l0.00433,-0.04754c0.12102,-0.66521 0.2334,-1.29591 0.35877,-1.8834c0,-0.02159 0.00432,-0.03887 0.00863,-0.06048c0.15561,-0.78186 0.3069,-1.4687 0.45818,-2.11666c2.46382,-10.55314 7.48653,-19.96587 14.15178,-26.49733c4.46513,-4.38453 11.84359,-9.6071 21.63832,-9.6071c1.00532,0 2.00661,0.05625 3.0032,0.1681c-4.51424,5.63219 -8.20126,11.78425 -11.01274,18.38953c-4.34841,10.20324 -6.37133,20.94213 -6.01689,31.90996c0.35444,10.83392 3.15541,22.23805 7.89283,32.11299c4.80542,10.01561 11.43469,18.22983 19.29391,23.94025c0.51376,1.28119 1.44464,2.43077 2.75072,3.25687c7.43898,4.71283 16.058,7.30468 24.92772,7.49908c0.41928,0.00864 0.8429,0.01294 1.25783,0.01294c14.58834,0 27.43908,-5.61565 37.16029,-16.23793c7.94474,-8.68268 13.66771,-20.75636 16.1142,-34.0007c1.21121,-6.56793 1.78343,-13.31888 1.71045,-20.165c-0.00026,-3.60703 -0.18131,-7.24301 -0.54337,-10.89397c-1.00713,-10.15139 -3.37585,-19.94857 -7.02832,-29.12371c-6.35837,-15.95282 -16.35627,-30.03086 -28.91306,-40.7136c-6.6566,-5.66319 -14.00914,-10.35443 -21.85443,-13.95278c-3.20294,-1.46871 -6.49235,-2.756 -9.85522,-3.85753c20.10382,1.49463 39.19187,7.96993 55.65616,18.94208c45.22176,30.13022 56.90973,98.53337 24.72025,143.85184c-16.23522,14.00891 -37.37212,21.71104 -59.61989,21.71104c-14.91685,0 -29.68676,-3.56812 -42.71903,-10.31989zM59.34969,52.60134c15.00764,-12.294 34.28587,-19.06736 54.28596,-19.06736c3.51417,0 7.06292,0.21167 10.55981,0.635c0.36309,0.0432 0.72619,0.09071 1.07198,0.13391c0.22909,0.03024 0.4625,0.06479 0.68725,0.09503c0.04325,0.00432 0.10377,0.01296 0.17293,0.02592c29.22424,4.21176 53.65055,24.31153 65.34716,53.78083c4.24988,10.70671 6.50923,22.66359 6.63887,34.45364c-0.0048,5.59318 -0.49509,11.13774 -1.48647,16.48048c-3.46665,18.71745 -15.47016,38.71356 -38.75101,38.71356c-0.30257,0 -0.60945,0 -0.91635,-0.00865c-2.36197,-0.05084 -4.69994,-0.35371 -6.97617,-0.89639c5.87268,-6.3336 10.60103,-14.2928 13.73651,-23.28122c0.05187,-0.1512 0.09941,-0.30668 0.14264,-0.46652c4.95355,-16.97663 4.93194,-34.91652 -0.0562,-51.88447c-0.03024,-0.10368 -0.06052,-0.20734 -0.09941,-0.30671c-2.65399,-7.61138 -6.39294,-14.42794 -11.11308,-20.26392c-4.16491,-5.14664 -8.91587,-9.32098 -14.16064,-12.43988c-0.66106,-1.0075 -1.60187,-1.85319 -2.74887,-2.43733c-6.32379,-3.20525 -13.0193,-4.82948 -19.90932,-4.82948c-6.06012,0 -11.99919,1.26137 -17.64867,3.75386c-5.31231,2.34994 -10.25292,5.73662 -14.68777,10.065c-8.60605,8.41055 -14.78287,19.78012 -17.84318,32.86462c-0.18154,0.76891 -0.36308,1.58967 -0.54462,2.50977c-0.15994,0.76028 -0.29393,1.50759 -0.42361,2.229c-0.00431,0.02159 -0.00864,0.04319 -0.00864,0.0648l-0.01729,0.07775c-0.04322,0.25487 -0.09077,0.54428 -0.13832,0.86395c-0.83279,5.0638 -1.2192,10.14016 -1.16569,15.1918c-0.04149,14.36499 3.44472,28.54586 10.31636,41.65173c9.155,17.46903 23.63961,31.72422 41.89774,41.22333c15.23242,7.92244 32.49205,12.10825 49.92026,12.10825c3.60495,0 7.18829,-0.1728 10.74136,-0.51837c-12.79021,4.68692 -26.54433,7.1924 -40.56211,7.1924c-61.1414,0 -110.88011,-46.19107 -110.88011,-102.9698c0,-28.55782 12.29312,-55.09835 34.6187,-74.74454zM86.71524,234.82546c15.49175,6.08652 31.94309,9.17081 48.89583,9.17081c10.1535,0 20.25512,-1.12742 30.02824,-3.35641c9.4965,-2.16422 18.72497,-5.37379 27.43044,-9.53801c17.04784,-8.16001 32.10733,-20.0566 43.55324,-34.41109c0.82279,-1.03176 1.28813,-2.21312 1.41173,-3.4117c8.28093,-11.92203 14.10543,-25.39522 17.33054,-40.0795c3.25049,-14.8081 3.67841,-29.97903 1.27512,-45.10246c-2.44218,-15.34374 -7.65077,-29.65938 -15.47882,-42.54086c-8.29907,-13.65039 -19.13986,-24.99404 -32.22401,-33.71129c-21.44812,-14.28972 -46.80372,-21.84495 -73.33076,-21.84495c-32.22837,0 -62.87472,11.27886 -86.29389,31.75877c-0.80504,0.70338 -1.40027,1.53568 -1.78412,2.42975c-11.43963,10.43724 -20.49862,22.61539 -26.94736,36.22765c-7.0197,14.81672 -10.58142,30.60972 -10.58142,46.9297c0,15.74548 3.32398,31.0201 9.87685,45.40918c6.32378,13.88799 15.38369,26.36339 26.91605,37.07639c11.53237,10.70864 24.96663,19.11917 39.92238,24.99403z" fill-opacity="0" fill="#ffffff" stroke-dashoffset="0" stroke-linejoin="miter" stroke-linecap="butt" stroke-opacity="1" stroke="#000000" stroke-miterlimit="20" stroke-width="1"></path></g></g></svg>