<?xml version="1.0" encoding="UTF-8"?>
<svg id="SVGDoc" width="15" height="16" xmlns="http://www.w3.org/2000/svg" version="1.1" xmlns:xlink="http://www.w3.org/1999/xlink" xmlns:avocode="https://avocode.com/" viewBox="0 0 15 16"><defs></defs><desc>Generated with Avocode.</desc><g><g><title>Group 990</title><g><title>Path 880</title><path d="M12.27316,7.67529h-9.33127c-0.73648,0 -1.33301,0.59656 -1.33301,1.33301v4.66565c0,0.73645 0.59653,1.33301 1.33301,1.33301h9.33127c0.73654,0 1.33307,-0.59656 1.33307,-1.33301v-4.66565c0,-0.73645 -0.59653,-1.33301 -1.33307,-1.33301z" fill-opacity="0" fill="#ffffff" stroke-dashoffset="0" stroke-linejoin="round" stroke-linecap="round" stroke-opacity="1" stroke="#ffffff" stroke-miterlimit="20" stroke-width="1.7000000476837158"></path></g><g><title>Path 881</title><path d="M4.27499,7.67493v0v-2.66608c0,-0.88379 0.35126,-1.73169 0.97577,-2.35687c0.62518,-0.62451 1.47296,-0.97571 2.35681,-0.97571c0.88379,0 1.73163,0.3512 2.35681,0.97571c0.62451,0.62518 0.97577,1.47308 0.97577,2.35687v2.66608v0" fill-opacity="0" fill="#ffffff" stroke-dashoffset="0" stroke-linejoin="round" stroke-linecap="round" stroke-opacity="1" stroke="#ffffff" stroke-miterlimit="20" stroke-width="1.7000000476837158"></path></g></g></g></svg>