<svg xmlns="http://www.w3.org/2000/svg" width="144.243" height="23" viewBox="0 0 144.243 23">
	<g id="helios-logo">
		<path id="Path_1988" data-name="Path 1988" d="M13.471,17.729h-3.45V10.664H3.45v7.064H0V1.3H3.45V7.707H9.939V1.3h3.45V17.729Z" transform="translate(0 -0.232)" fill="#fff" />
		<path id="Path_1989" data-name="Path 1989" d="M26.589,18.679a6.7,6.7,0,0,1-4.764-1.643A6.4,6.4,0,0,1,20.1,12.271a6.751,6.751,0,0,1,1.561-4.846A5.572,5.572,0,0,1,26.014,5.7a5.467,5.467,0,0,1,4.107,1.479A5.666,5.666,0,0,1,31.6,11.368v1.643H23.468a3.4,3.4,0,0,0,.821,2.3,3.043,3.043,0,0,0,2.3.821,8.953,8.953,0,0,0,2.136-.246,13.261,13.261,0,0,0,2.136-.739v2.629a7.356,7.356,0,0,1-1.889.657A6.612,6.612,0,0,1,26.589,18.679ZM26.1,8.164a2.353,2.353,0,0,0-1.725.657,3.326,3.326,0,0,0-.739,1.971h4.846a3,3,0,0,0-.657-1.971A2.07,2.07,0,0,0,26.1,8.164Z" transform="translate(-3.589 -1.018)" fill="#fff" />
		<path id="Path_1990" data-name="Path 1990" d="M41.05,17.5H37.6V0h3.45Z" transform="translate(-6.714)" fill="#fff" />
		<path id="Path_1991" data-name="Path 1991" d="M46,1.643C46,.493,46.657,0,47.889,0s1.889.575,1.889,1.643a1.441,1.441,0,0,1-.493,1.232,2.349,2.349,0,0,1-1.4.411C46.657,3.368,46,2.793,46,1.643ZM49.532,17.5h-3.45V4.929h3.45Z" transform="translate(-8.214)" fill="#fff" />
		<path id="Path_1992" data-name="Path 1992" d="M65.939,12.171A6.7,6.7,0,0,1,64.3,16.936a6.169,6.169,0,0,1-9.857-1.4,7.622,7.622,0,0,1-.739-3.45,6.7,6.7,0,0,1,1.643-4.764,6.73,6.73,0,0,1,7.721-.9,4.868,4.868,0,0,1,2.136,2.3A7.622,7.622,0,0,1,65.939,12.171Zm-8.707,0a4.992,4.992,0,0,0,.657,2.793,2.334,2.334,0,0,0,1.971.986,2.151,2.151,0,0,0,1.971-.986,5.247,5.247,0,0,0,.575-2.793,6.17,6.17,0,0,0-.575-2.793,2.1,2.1,0,0,0-1.971-.9,2.28,2.28,0,0,0-1.971.9A4.992,4.992,0,0,0,57.232,12.171Z" transform="translate(-9.589 -1)" fill="#fff" />
		<path id="Path_1993" data-name="Path 1993" d="M80.646,14.718a3.392,3.392,0,0,1-1.314,2.957,6.76,6.76,0,0,1-4.025.986,16.66,16.66,0,0,1-2.3-.164,7.684,7.684,0,0,1-1.807-.575V15.046a9.383,9.383,0,0,0,2.136.739,10.4,10.4,0,0,0,2.136.329c1.232,0,1.889-.329,1.889-1.068a.933.933,0,0,0-.246-.657c-.164-.164-.493-.329-.821-.575a7.925,7.925,0,0,0-1.643-.739,8.288,8.288,0,0,1-2.136-1.15,3.217,3.217,0,0,1-.986-1.15A3.258,3.258,0,0,1,71.2,9.132,2.992,2.992,0,0,1,72.514,6.5a6.014,6.014,0,0,1,3.7-.9,10.843,10.843,0,0,1,4.436.986L79.579,9.05c-.657-.246-1.232-.493-1.807-.657a5.692,5.692,0,0,0-1.643-.246c-.986,0-1.479.246-1.479.821a1,1,0,0,0,.493.821,10.876,10.876,0,0,0,2.136.986,7.072,7.072,0,0,1,2.136,1.15,4.1,4.1,0,0,1,.986,1.15A5.3,5.3,0,0,1,80.646,14.718Z" transform="translate(-12.714 -1)" fill="#fff" />
		<path id="Path_1994" data-name="Path 1994" d="M99.936,9.35a8.125,8.125,0,0,1-2.3,6.243c-1.561,1.479-3.779,2.136-6.654,2.136H86.3V1.3h5.175a8.708,8.708,0,0,1,6.243,2.136A7.743,7.743,0,0,1,99.936,9.35Zm-3.614.082c0-3.532-1.561-5.257-4.682-5.257H89.75V14.854h1.479C94.6,14.854,96.321,13.046,96.321,9.432Z" transform="translate(-15.411 -0.232)" fill="#fff" />
		<path id="Path_1995" data-name="Path 1995" d="M112.189,18.679a6.7,6.7,0,0,1-4.764-1.643,6.271,6.271,0,0,1-1.725-4.764,6.751,6.751,0,0,1,1.561-4.846A5.692,5.692,0,0,1,111.614,5.7a5.467,5.467,0,0,1,4.107,1.479,5.666,5.666,0,0,1,1.479,4.189v1.643h-7.968a3.445,3.445,0,0,0,.9,2.3,3.043,3.043,0,0,0,2.3.821,8.954,8.954,0,0,0,2.136-.246,13.262,13.262,0,0,0,2.136-.739v2.629a7.356,7.356,0,0,1-1.889.657A8.947,8.947,0,0,1,112.189,18.679ZM111.7,8.164a2.353,2.353,0,0,0-1.725.657,3.326,3.326,0,0,0-.739,1.971H114a3,3,0,0,0-.657-1.971A1.9,1.9,0,0,0,111.7,8.164Z" transform="translate(-18.875 -1.018)" fill="#fff" />
		<path id="Path_1996" data-name="Path 1996" d="M131.846,14.718a3.392,3.392,0,0,1-1.314,2.957,6.76,6.76,0,0,1-4.025.986,16.66,16.66,0,0,1-2.3-.164,7.684,7.684,0,0,1-1.807-.575V15.046a9.383,9.383,0,0,0,2.136.739,10.4,10.4,0,0,0,2.136.329c1.232,0,1.889-.329,1.889-1.068a.933.933,0,0,0-.246-.657c-.164-.164-.493-.329-.821-.575a7.925,7.925,0,0,0-1.643-.739,8.288,8.288,0,0,1-2.136-1.15,3.217,3.217,0,0,1-.986-1.15,3.258,3.258,0,0,1-.329-1.643A2.992,2.992,0,0,1,123.714,6.5a6.014,6.014,0,0,1,3.7-.9,10.843,10.843,0,0,1,4.436.986L130.779,9.05c-.657-.246-1.232-.493-1.725-.657a5.3,5.3,0,0,0-1.643-.246c-.986,0-1.479.246-1.479.821a1,1,0,0,0,.493.821,10.876,10.876,0,0,0,2.136.986,7.072,7.072,0,0,1,2.136,1.15,4.1,4.1,0,0,1,.986,1.15A10.107,10.107,0,0,1,131.846,14.718Z" transform="translate(-21.857 -1)" fill="#fff" />
		<path id="Path_1997" data-name="Path 1997" d="M137,1.643C137,.493,137.657,0,138.889,0s1.889.575,1.889,1.643a1.441,1.441,0,0,1-.493,1.232,2.175,2.175,0,0,1-1.4.411C137.657,3.368,137,2.793,137,1.643ZM140.532,17.5h-3.45V4.929h3.45Z" transform="translate(-24.464)" fill="#fff" />
		<path id="Path_1998" data-name="Path 1998" d="M156.25,5.946V7.671l-1.971.493a3.656,3.656,0,0,1,.575,1.889,3.873,3.873,0,0,1-1.4,3.121,6.1,6.1,0,0,1-3.943,1.15h-.657l-.493-.082a1.135,1.135,0,0,0-.493.9c0,.493.657.739,1.889.739H151.9a4.716,4.716,0,0,1,3.121.9,3.134,3.134,0,0,1,1.068,2.629,4.068,4.068,0,0,1-1.807,3.45c-1.15.821-2.957,1.15-5.257,1.15a7.683,7.683,0,0,1-4.025-.9,2.925,2.925,0,0,1-1.4-2.546,2.6,2.6,0,0,1,.739-1.889,3.786,3.786,0,0,1,2.054-1.068,2.568,2.568,0,0,1-.9-.739,1.934,1.934,0,0,1-.411-1.068,2.018,2.018,0,0,1,.411-1.232,3,3,0,0,1,1.232-.9,3.649,3.649,0,0,1-1.561-1.4,4.069,4.069,0,0,1-.575-2.218,3.875,3.875,0,0,1,1.314-3.2,5.764,5.764,0,0,1,3.779-1.15,7.094,7.094,0,0,1,1.232.082,3.427,3.427,0,0,1,.9.164Zm-9.693,14.293a1.416,1.416,0,0,0,.657,1.15,4.028,4.028,0,0,0,1.889.411,6.7,6.7,0,0,0,2.875-.493,1.65,1.65,0,0,0,1.068-1.4.99.99,0,0,0-.657-.986,5.515,5.515,0,0,0-1.889-.246h-1.807a2.922,2.922,0,0,0-1.561.411A1.569,1.569,0,0,0,146.557,20.239Zm1.232-10.186a2.607,2.607,0,0,0,.493,1.643,1.593,1.593,0,0,0,1.4.575,1.5,1.5,0,0,0,1.4-.575,2.453,2.453,0,0,0,.493-1.643c0-1.479-.657-2.3-1.889-2.3S147.789,8.493,147.789,10.054Z" transform="translate(-25.643 -1.018)" fill="#fff" />
		<path id="Path_1999" data-name="Path 1999" d="M173.064,18.514h-3.45V11.2a3.612,3.612,0,0,0-.493-2.054,1.664,1.664,0,0,0-1.561-.657,2.2,2.2,0,0,0-2.054.986,6.223,6.223,0,0,0-.657,3.2V18.6H161.4V5.946h2.629l.493,1.643h.164a4.266,4.266,0,0,1,1.561-1.4,5,5,0,0,1,2.3-.493,4.772,4.772,0,0,1,3.368,1.15,4.508,4.508,0,0,1,1.15,3.45v8.214Z" transform="translate(-28.821 -1.018)" fill="#fff" />
	</g>
</svg>
