<svg xmlns="http://www.w3.org/2000/svg" width="20.742" height="20.742" viewBox="0 0 20.742 20.742">
  <g id="Group_332" data-name="Group 332" transform="translate(-8753.32 -4623.877)">
    <path id="Path_1926" data-name="Path 1926" d="M23.182,65.58A1.216,1.216,0,1,0,24.4,66.8a1.216,1.216,0,0,0-1.216-1.216" transform="translate(8746 4562)" fill="#9ab7de"/>
    <path id="Path_1927" data-name="Path 1927" d="M17.776,67.14a5.108,5.108,0,1,0,5.108,5.108,5.113,5.113,0,0,0-5.108-5.108m0,8.38a3.272,3.272,0,1,1,3.272-3.272,3.276,3.276,0,0,1-3.272,3.272" transform="translate(8746 4562)" fill="#9ab7de"/>
    <path id="Path_1928" data-name="Path 1928" d="M21.831,82.619H13.55a6.237,6.237,0,0,1-6.23-6.23V68.107a6.236,6.236,0,0,1,6.23-6.23h8.281a6.237,6.237,0,0,1,6.231,6.23v8.282a6.238,6.238,0,0,1-6.231,6.23M13.55,63.828a4.283,4.283,0,0,0-4.279,4.279v8.282a4.284,4.284,0,0,0,4.279,4.279h8.281a4.285,4.285,0,0,0,4.28-4.279V68.107a4.284,4.284,0,0,0-4.28-4.279Z" transform="translate(8746 4562)" fill="#9ab7de"/>
  </g>
</svg>
