<svg xmlns="http://www.w3.org/2000/svg" width="18.583" height="18.584" viewBox="0 0 18.583 18.584">
  <path id="Linked_In" data-name="Linked In" d="M10.411,18.584H6.6V6.181h3.691v1.7h.042a3.328,3.328,0,0,1,1.327-1.369,4.107,4.107,0,0,1,2.322-.663,4.134,4.134,0,0,1,3.775,1.7,8.428,8.428,0,0,1,.83,4.231v6.8H14.724V12.526a6.728,6.728,0,0,0-.248-2.156A1.753,1.753,0,0,0,12.692,9.25a1.952,1.952,0,0,0-1.867,1,4.663,4.663,0,0,0-.415,2.2v6.139Zm-6.263,0H.29V6.181H4.148v12.4ZM2.24,4.48A2.158,2.158,0,0,1,.664,3.815,2.158,2.158,0,0,1,0,2.24,2.158,2.158,0,0,1,.664.664,2.158,2.158,0,0,1,2.24,0,2.158,2.158,0,0,1,3.815.664,2.158,2.158,0,0,1,4.48,2.24a2.158,2.158,0,0,1-.664,1.576A2.158,2.158,0,0,1,2.24,4.48Z" fill="#9ab7de"/>
</svg>
