<svg xmlns="http://www.w3.org/2000/svg" width="61" height="60.838" viewBox="0 0 61 60.838">
  <g id="Group_1043" data-name="Group 1043" transform="translate(-1299.5 -1059.162)">
    <g id="Group_747" data-name="Group 747" transform="translate(6 103)">
      <g id="Group_746" data-name="Group 746" transform="translate(1294 956.662)">
        <path id="Union_8" data-name="Union 8" d="M55.714,35H4.286A4.331,4.331,0,0,1,0,30.625V26.25H51.428V0H60V30.625h0A4.331,4.331,0,0,1,55.714,35h0Zm-4.286-4.375h0ZM0,26.25V0H51.428V26.25Z" transform="translate(0 24.838)" fill="#2999ec" stroke="rgba(0,0,0,0)" stroke-miterlimit="10" stroke-width="1"/>
        <path id="Subtraction_2" data-name="Subtraction 2" d="M55.5,59.838H4.274A4.274,4.274,0,0,1,0,55.564V0H51.29V55.52c0,.007,0,.015,0,.022s0,.015,0,.022h0A4.274,4.274,0,0,0,55.5,59.838Z" transform="translate(0 0)" fill="#ea1f56" stroke="rgba(0,0,0,0)" stroke-miterlimit="10" stroke-width="1" opacity="0.8" style="mix-blend-mode: multiply;isolation: isolate"/>
      </g>
    </g>
    <path id="Intersection_6" data-name="Intersection 6" d="M602.285-7452.162a4.332,4.332,0,0,1-4.285-4.376v-30.624h51.29v30.624h0v.1h0a4.237,4.237,0,0,0,1.252,3.022,4.243,4.243,0,0,0,2.952,1.252Z" transform="translate(702 8571.662)" fill="#2b2791" stroke="rgba(0,0,0,0)" stroke-miterlimit="10" stroke-width="1"/>
    <rect id="Rectangle_800" data-name="Rectangle 800" width="36" height="2" transform="translate(1307 1079)" fill="#fff"/>
    <rect id="Rectangle_824" data-name="Rectangle 824" width="36" height="2" transform="translate(1307 1068)" fill="#fff"/>
    <rect id="Rectangle_801" data-name="Rectangle 801" width="36" height="2" transform="translate(1307 1091)" fill="#fff"/>
  </g>
</svg>
