<svg xmlns="http://www.w3.org/2000/svg" width="74.805" height="78.085" viewBox="0 0 74.805 78.085">
  <g id="Group_1022" data-name="Group 1022" transform="translate(-531.56 -1056.546)">
    <rect id="Rectangle_675" data-name="Rectangle 675" width="15.933" height="59.984" transform="translate(550.305 1056.547)" fill="#2999ec"/>
    <rect id="Rectangle_676" data-name="Rectangle 676" width="15.933" height="36.553" transform="translate(531.561 1079.979)" fill="#2999ec"/>
    <rect id="Rectangle_677" data-name="Rectangle 677" width="15.933" height="43.114" transform="translate(569.051 1073.418)" fill="#2999ec"/>
    <path id="Exclusion_2" data-name="Exclusion 2" d="M25.558,48.093H22.532a2.442,2.442,0,0,1-2.439-2.439,2.428,2.428,0,0,0-.479-1.454,2.388,2.388,0,0,0-1.251-.877A19.943,19.943,0,0,1,14.441,41.7a2.427,2.427,0,0,0-2.877.423v0a2.44,2.44,0,0,1-3.45,0L5.972,39.98a2.441,2.441,0,0,1,0-3.45,2.434,2.434,0,0,0,.691-1.37A2.387,2.387,0,0,0,6.4,33.652a20.071,20.071,0,0,1-1.626-3.924,2.38,2.38,0,0,0-.876-1.251A2.427,2.427,0,0,0,2.439,28,2.442,2.442,0,0,1,0,25.56V22.532a2.442,2.442,0,0,1,2.439-2.439,2.429,2.429,0,0,0,1.454-.478,2.382,2.382,0,0,0,.876-1.25A20.025,20.025,0,0,1,6.4,14.441a2.387,2.387,0,0,0,.268-1.507,2.43,2.43,0,0,0-.691-1.369,2.442,2.442,0,0,1,0-3.45l2.14-2.141a2.441,2.441,0,0,1,3.45,0,2.426,2.426,0,0,0,2.878.424,19.931,19.931,0,0,1,3.923-1.627,2.388,2.388,0,0,0,1.251-.877,2.428,2.428,0,0,0,.479-1.455A2.441,2.441,0,0,1,22.532,0h3.026A2.442,2.442,0,0,1,28,2.439a2.433,2.433,0,0,0,.479,1.455,2.384,2.384,0,0,0,1.25.877A19.954,19.954,0,0,1,33.651,6.4a2.425,2.425,0,0,0,2.876-.423h0a2.44,2.44,0,0,1,3.45,0l2.14,2.141a2.437,2.437,0,0,1,0,3.449v0a2.42,2.42,0,0,0-.691,1.368,2.392,2.392,0,0,0,.268,1.507,19.971,19.971,0,0,1,1.625,3.925,2.383,2.383,0,0,0,.878,1.25,2.426,2.426,0,0,0,1.453.478,2.442,2.442,0,0,1,2.44,2.439V25.56A2.442,2.442,0,0,1,45.652,28a2.424,2.424,0,0,0-1.453.478,2.383,2.383,0,0,0-.878,1.251A20.016,20.016,0,0,1,41.7,33.652a2.392,2.392,0,0,0-.268,1.507,2.424,2.424,0,0,0,.691,1.369,2.445,2.445,0,0,1,0,3.452l-2.14,2.141a2.439,2.439,0,0,1-3.45,0l0,0a2.426,2.426,0,0,0-2.876-.423,19.951,19.951,0,0,1-3.924,1.626,2.384,2.384,0,0,0-1.25.877A2.433,2.433,0,0,0,28,45.653,2.442,2.442,0,0,1,25.558,48.093ZM24.169,13.065a11.065,11.065,0,1,0,4.323.872A11.037,11.037,0,0,0,24.169,13.065Z" transform="translate(558.273 1086.539)" fill="#ea1f56" opacity="0.777" style="mix-blend-mode: multiply;isolation: isolate"/>
    <path id="Union_23" data-name="Union 23" d="M635.49-7452.015v-43.114h15.932v43.114Zm-18.745,0V-7512h15.932v59.985Zm-18.745,0v-36.553h15.934v36.553Z" transform="translate(-66.439 8568.547)" fill="#2999ec"/>
    <path id="Intersection_5" data-name="Intersection 5" d="M635.49-7452.015v-24.547a2.436,2.436,0,0,1,.784.527,2.428,2.428,0,0,0,1.727.718,2.411,2.411,0,0,0,1.152-.294,20.1,20.1,0,0,1,3.923-1.627,2.376,2.376,0,0,0,1.25-.875,2.424,2.424,0,0,0,.479-1.456,2.441,2.441,0,0,1,2.44-2.439h3.026a2.43,2.43,0,0,1,1.152.289v13.068a11.117,11.117,0,0,0-2.541-.292,11.055,11.055,0,0,0-4.325.873,11.075,11.075,0,0,0-3.527,2.379,11.086,11.086,0,0,0-2.381,3.529,11.076,11.076,0,0,0-.873,4.323,11.067,11.067,0,0,0,.873,4.321,11.115,11.115,0,0,0,.775,1.5Zm-5.929,0q-.041-.132-.08-.264a2.388,2.388,0,0,0-.877-1.251,2.428,2.428,0,0,0-1.454-.477,2.442,2.442,0,0,1-2.44-2.439v-3.028a2.442,2.442,0,0,1,2.44-2.439,2.441,2.441,0,0,0,1.454-.477,2.392,2.392,0,0,0,.877-1.25,19.947,19.947,0,0,1,1.625-3.925,2.379,2.379,0,0,0,.268-1.508,2.439,2.439,0,0,0-.69-1.369,2.416,2.416,0,0,1-.714-1.725,2.417,2.417,0,0,1,.714-1.725l1.993-1.995v23.873Z" transform="translate(-66.439 8568.547)" fill="#2b2791" opacity="0.777" style="mix-blend-mode: multiply;isolation: isolate"/>
  </g>
</svg>
