<svg xmlns="http://www.w3.org/2000/svg" width="19.381" height="19.359" viewBox="0 0 19.381 19.359">
  <g id="Group_356" data-name="Group 356" transform="translate(0)">
    <path id="Path_1920" data-name="Path 1920" d="M608.706,1231.911a7.606,7.606,0,1,0-7.605-7.605A7.673,7.673,0,0,0,608.706,1231.911Zm0-13.828a6.223,6.223,0,1,1-6.223,6.223A6.2,6.2,0,0,1,608.706,1218.083Z" transform="translate(-596.93 -1216.7)" fill="#2999ec"/>
    <path id="Path_1921" data-name="Path 1921" d="M621.344,1230.8l-6.05,6.05a.678.678,0,0,0,0,.951.731.731,0,0,0,.519.173c.173,0,.432,0,.519-.173l6.05-6.05Z" transform="translate(-615.1 -1218.614)" fill="#2999ec"/>
  </g>
</svg>
