<svg xmlns="http://www.w3.org/2000/svg" width="83.196" height="61.953" viewBox="0 0 83.196 61.953">
  <g id="Group_1042" data-name="Group 1042" transform="translate(-1048.631 -1056.547)">
    <path id="Path_4140" data-name="Path 4140" d="M110.57,58.51c0-12.426-13.138-22.5-29.345-22.5S51.879,46.084,51.879,58.51s13.138,22.5,29.345,22.5a36.636,36.636,0,0,0,13.052-2.349l14.338,6.913-5.348-12.219c4.544-3.962,7.3-9.155,7.3-14.844" transform="translate(1021.258 1032.928)" fill="#2999ec"/>
    <path id="Path_4141" data-name="Path 4141" d="M51.879,61.417c0-14.032,14.836-25.4,33.136-25.4s33.136,11.373,33.136,25.4-14.836,25.4-33.136,25.4a41.368,41.368,0,0,1-14.738-2.653L54.087,91.975l6.039-13.8C54.995,73.7,51.879,67.84,51.879,61.417" transform="translate(996.752 1020.535)" fill="#ea1f56" opacity="0.801" style="mix-blend-mode: multiply;isolation: isolate"/>
    <path id="Intersection_4" data-name="Intersection 4" d="M631.115-7461.19c-5.318-4.072-8.608-9.7-8.608-15.919,0-12.426,13.138-22.5,29.344-22.5a37.689,37.689,0,0,1,8.455.948,20.809,20.809,0,0,1,3.967,12.064c0,14.032-14.835,25.406-33.135,25.406Z" transform="translate(450.631 8568.547)" fill="#2b2791" stroke="rgba(0,0,0,0)" stroke-miterlimit="10" stroke-width="1"/>
  </g>
</svg>
